# xmcd CD database file
#
# Track frame offsets:
#	150
#	38137
#	67425
#	91662
#	113625
#	123225
#	160312
#	176475
#	203287
#	217050
#	226800
#	241312
#	253837
#	289887
#
# Disc length: 4222 seconds
#
# Revision: 0
# Processed by: cddbd v1.5PL3 Copyright (c) Steve Scherf et al.
# Submitted via: CDex 1.50
#
DISCID=c3107c0e
DTITLE=Various Artist - Love Jazz Bossa Nova
DYEAR=2003
DGENRE=Samba
TTITLE0=Mana de carnaval
TTITLE1=The girl from ipanema
TTITLE2=O amor em paz
TTITLE3=Clouds
TTITLE4=Triste
TTITLE5=Wave
TTITLE6=Chega de saudade
TTITLE7=Corcovado
TTITLE8=Samba do aviao
TTITLE9=Agua de beber
TTITLE10=Loie
TTITLE11=One note samba
TTITLE12=Blue bossa
TTITLE13=Manha de carnaval
EXTD=YEAR: 2003
EXTT0=
EXTT1=
EXTT2=
EXTT3=
EXTT4=
EXTT5=
EXTT6=
EXTT7=
EXTT8=
EXTT9=
EXTT10=
EXTT11=
EXTT12=
EXTT13=
PLAYORDER=
